<?xml version="1.0" encoding="iso-8859-1"?>
<!-- Generator: Adobe Illustrator 19.0.0, SVG Export Plug-In . SVG Version: 6.00 Build 0)  -->
<svg version="1.1" id="Layer_1" xmlns="http://www.w3.org/2000/svg" xmlns:xlink="http://www.w3.org/1999/xlink" x="0px" y="0px"
	 viewBox="0 0 494.46 494.46" style="enable-background:new 0 0 494.46 494.46;" xml:space="preserve">
<g>
	
		<rect x="227.229" y="119.856" transform="matrix(0.7071 0.7071 -0.7071 0.7071 247.23 -102.406)" style="fill:#005ECE;" width="40.001" height="254.749"/>
	<path style="fill:#005ECE;" d="M455.65,38.81L427.37,67.1c17.47,17.47,27.09,40.69,27.09,65.4c0,24.71-9.62,47.94-27.1,65.41
		L326.78,298.49l28.28,28.29l100.59-100.59c25.03-25.02,38.81-58.3,38.81-93.69C494.46,97.11,480.68,63.84,455.65,38.81z"/>
	<path style="fill:#2488FF;" d="M361.96,0c-35.39,0-68.67,13.78-93.69,38.81L167.68,139.4l28.28,28.28L296.55,67.09
		C314.02,49.62,337.25,40,361.96,40s47.92,9.62,65.4,27.1c0.01,0,28.29-28.29,28.29-28.29C430.62,13.78,397.35,0,361.96,0z"/>
	<path style="fill:#005ECE;" d="M197.91,427.37c-17.47,17.47-40.7,27.09-65.41,27.09c-24.71,0-47.92-9.62-65.4-27.1l-28.29,28.29
		c25.03,25.03,58.3,38.81,93.69,38.81c35.39,0,68.67-13.78,93.69-38.81l100.59-100.59l-28.29-28.28L197.91,427.37z"/>
	<path style="fill:#2488FF;" d="M67.09,427.36C49.62,409.89,40,386.67,40,361.96s9.62-47.94,27.09-65.41l100.59-100.58l-28.28-28.29
		L38.81,268.27C13.78,293.29,0,326.57,0,361.96s13.78,68.66,38.81,93.69C38.81,455.65,67.1,427.36,67.09,427.36z"/>
</g>
<g>
</g>
<g>
</g>
<g>
</g>
<g>
</g>
<g>
</g>
<g>
</g>
<g>
</g>
<g>
</g>
<g>
</g>
<g>
</g>
<g>
</g>
<g>
</g>
<g>
</g>
<g>
</g>
<g>
</g>
</svg>
